<?xml version="1.0" encoding="UTF-8"?>
<!DOCTYPE svg PUBLIC "-//W3C//DTD SVG 1.1//EN" "http://www.w3.org/Graphics/SVG/1.1/DTD/svg11.dtd">
<svg xmlns="http://www.w3.org/2000/svg" version="1.1" width="64px" height="64px" style="shape-rendering:geometricPrecision; text-rendering:geometricPrecision; image-rendering:optimizeQuality; fill-rule:evenodd; clip-rule:evenodd" xmlns:xlink="http://www.w3.org/1999/xlink">
<g><path style="opacity:1" fill="#907e54" d="M 32.5,0.5 C 32.5,0.833333 32.5,1.16667 32.5,1.5C 31.8333,1.5 31.1667,1.5 30.5,1.5C 26.8333,1.5 23.1667,1.5 19.5,1.5C 18.5,1.5 17.5,1.5 16.5,1.5C 14.5,1.5 12.5,1.5 10.5,1.5C 8.5,1.5 6.5,1.5 4.5,1.5C 3.5,1.5 2.5,1.5 1.5,1.5C 1.5,3.16667 1.5,4.83333 1.5,6.5C 1.5,10.1667 1.5,13.8333 1.5,17.5C 1.15684,19.4832 1.82351,20.8166 3.5,21.5C 2.79105,22.404 1.79105,22.7373 0.5,22.5C 0.5,15.1667 0.5,7.83333 0.5,0.5C 11.1667,0.5 21.8333,0.5 32.5,0.5 Z"/></g>
<g><path style="opacity:1" fill="#907f59" d="M 60.5,-0.5 C 61.5,-0.5 62.5,-0.5 63.5,-0.5C 63.5,-0.166667 63.5,0.166667 63.5,0.5C 62.1667,0.833333 60.8333,1.16667 59.5,1.5C 56.5,1.5 53.5,1.5 50.5,1.5C 48.5,1.5 46.5,1.5 44.5,1.5C 43.5,1.5 42.5,1.5 41.5,1.5C 40.5,1.5 39.5,1.5 38.5,1.5C 36.5,1.5 34.5,1.5 32.5,1.5C 32.5,1.16667 32.5,0.833333 32.5,0.5C 42.015,0.826894 51.3483,0.493561 60.5,-0.5 Z"/></g>
<g><path style="opacity:1" fill="#76633a" d="M 44.5,1.5 C 46.5,1.5 48.5,1.5 50.5,1.5C 51.9992,1.95994 52.9992,3.29327 53.5,5.5C 52.1667,5.5 50.8333,5.5 49.5,5.5C 47.9934,4.02453 46.3268,2.69119 44.5,1.5 Z"/></g>
<g><path style="opacity:1" fill="#6d5923" d="M 4.5,1.5 C 4.5,2.5 4.5,3.5 4.5,4.5C 4.78448,6.41467 4.45115,8.08134 3.5,9.5C 2.83333,8.5 2.16667,7.5 1.5,6.5C 1.5,4.83333 1.5,3.16667 1.5,1.5C 2.5,1.5 3.5,1.5 4.5,1.5 Z"/></g>
<g><path style="opacity:1" fill="#756327" d="M 4.5,1.5 C 6.5,1.5 8.5,1.5 10.5,1.5C 10.5,2.83333 10.5,4.16667 10.5,5.5C 10.5,6.16667 10.5,6.83333 10.5,7.5C 9.83333,7.5 9.16667,7.5 8.5,7.5C 8.73319,4.04643 7.39986,3.04643 4.5,4.5C 4.5,3.5 4.5,2.5 4.5,1.5 Z"/></g>
<g><path style="opacity:1" fill="#715f2c" d="M 10.5,1.5 C 12.5,1.5 14.5,1.5 16.5,1.5C 15.8902,2.39105 15.5569,3.39105 15.5,4.5C 15.0879,6.88669 14.0879,8.88669 12.5,10.5C 13.038,8.88277 13.3713,7.2161 13.5,5.5C 12.5,5.5 11.5,5.5 10.5,5.5C 10.5,4.16667 10.5,2.83333 10.5,1.5 Z"/></g>
<g><path style="opacity:1" fill="#6d5827" d="M 19.5,1.5 C 23.1667,1.5 26.8333,1.5 30.5,1.5C 30.6309,2.37644 30.2975,3.04311 29.5,3.5C 28.6043,2.49367 27.9377,2.49367 27.5,3.5C 28.9492,4.17189 30.2825,4.83855 31.5,5.5C 28.8333,5.5 26.1667,5.5 23.5,5.5C 23.1788,3.95186 22.1788,3.28519 20.5,3.5C 20.1667,2.83333 19.8333,2.16667 19.5,1.5 Z"/></g>
<g><path style="opacity:1" fill="#b08d35" d="M 16.5,1.5 C 17.5,1.5 18.5,1.5 19.5,1.5C 19.8333,2.16667 20.1667,2.83333 20.5,3.5C 20.5,4.83333 20.5,6.16667 20.5,7.5C 20.1667,7.5 19.8333,7.5 19.5,7.5C 19.8432,5.51676 19.1765,4.18342 17.5,3.5C 16.8333,3.83333 16.1667,4.16667 15.5,4.5C 15.5569,3.39105 15.8902,2.39105 16.5,1.5 Z"/></g>
<g><path style="opacity:1" fill="#806230" d="M 20.5,3.5 C 22.1788,3.28519 23.1788,3.95186 23.5,5.5C 22.5084,5.32842 21.8417,5.66175 21.5,6.5C 21.5,7.16667 21.5,7.83333 21.5,8.5C 21.5,8.83333 21.5,9.16667 21.5,9.5C 21.5,11.1667 21.5,12.8333 21.5,14.5C 20.5318,12.3926 20.1984,10.0593 20.5,7.5C 20.5,6.16667 20.5,4.83333 20.5,3.5 Z"/></g>
<g><path style="opacity:1" fill="#6a5320" d="M 30.5,1.5 C 31.1667,1.5 31.8333,1.5 32.5,1.5C 32.9175,2.22158 33.5842,2.72158 34.5,3C 33.6195,3.7083 32.9528,4.54163 32.5,5.5C 32.1667,5.5 31.8333,5.5 31.5,5.5C 30.2825,4.83855 28.9492,4.17189 27.5,3.5C 27.9377,2.49367 28.6043,2.49367 29.5,3.5C 30.2975,3.04311 30.6309,2.37644 30.5,1.5 Z"/></g>
<g><path style="opacity:1" fill="#6c592a" d="M 32.5,1.5 C 34.5,1.5 36.5,1.5 38.5,1.5C 38.5,2.83333 38.5,4.16667 38.5,5.5C 36.5,5.5 34.5,5.5 32.5,5.5C 32.9528,4.54163 33.6195,3.7083 34.5,3C 33.5842,2.72158 32.9175,2.22158 32.5,1.5 Z"/></g>
<g><path style="opacity:1" fill="#675019" d="M 41.5,1.5 C 42.5,1.5 43.5,1.5 44.5,1.5C 46.3268,2.69119 47.9934,4.02453 49.5,5.5C 47.5,5.5 45.5,5.5 43.5,5.5C 42.3995,4.39514 41.7329,3.06181 41.5,1.5 Z"/></g>
<g><path style="opacity:1" fill="#725c2b" d="M 50.5,1.5 C 53.5,1.5 56.5,1.5 59.5,1.5C 60.1667,2.5 60.8333,3.5 61.5,4.5C 59.1825,5.00686 56.5158,5.3402 53.5,5.5C 52.9992,3.29327 51.9992,1.95994 50.5,1.5 Z"/></g>
<g><path style="opacity:1" fill="#d5c82c" d="M 8.5,7.5 C 8.21781,8.77765 7.55114,9.77765 6.5,10.5C 6.5,10.8333 6.5,11.1667 6.5,11.5C 5.22235,11.7822 4.22235,12.4489 3.5,13.5C 3.5,12.1667 3.5,10.8333 3.5,9.5C 4.45115,8.08134 4.78448,6.41467 4.5,4.5C 7.39986,3.04643 8.73319,4.04643 8.5,7.5 Z"/></g>
<g><path style="opacity:1" fill="#7d693a" d="M 38.5,1.5 C 39.5,1.5 40.5,1.5 41.5,1.5C 41.7329,3.06181 42.3995,4.39514 43.5,5.5C 41.8333,5.5 40.1667,5.5 38.5,5.5C 38.5,4.16667 38.5,2.83333 38.5,1.5 Z"/></g>
<g><path style="opacity:1" fill="#635027" d="M 61.5,4.5 C 62.0102,7.38779 61.3435,9.72113 59.5,11.5C 58.8333,11.1667 58.1667,10.8333 57.5,10.5C 57.5,9.83333 57.1667,9.5 56.5,9.5C 56.5,8.5 56.5,7.5 56.5,6.5C 51.1667,6.5 45.8333,6.5 40.5,6.5C 34.1667,6.5 27.8333,6.5 21.5,6.5C 21.8417,5.66175 22.5084,5.32842 23.5,5.5C 26.1667,5.5 28.8333,5.5 31.5,5.5C 31.8333,5.5 32.1667,5.5 32.5,5.5C 34.5,5.5 36.5,5.5 38.5,5.5C 40.1667,5.5 41.8333,5.5 43.5,5.5C 45.5,5.5 47.5,5.5 49.5,5.5C 50.8333,5.5 52.1667,5.5 53.5,5.5C 56.5158,5.3402 59.1825,5.00686 61.5,4.5 Z"/></g>
<g><path style="opacity:1" fill="#433717" d="M 10.5,5.5 C 11.5,5.5 12.5,5.5 13.5,5.5C 13.3713,7.2161 13.038,8.88277 12.5,10.5C 12.5,11.1667 12.1667,11.5 11.5,11.5C 11.1667,10.1667 10.8333,8.83333 10.5,7.5C 10.5,6.83333 10.5,6.16667 10.5,5.5 Z"/></g>
<g><path style="opacity:1" fill="#382d15" d="M 21.5,6.5 C 27.8333,6.5 34.1667,6.5 40.5,6.5C 40.5,7.16667 40.5,7.83333 40.5,8.5C 34.3555,7.2152 28.0221,7.2152 21.5,8.5C 21.5,7.83333 21.5,7.16667 21.5,6.5 Z"/></g>
<g><path style="opacity:1" fill="#3f311a" d="M 40.5,6.5 C 45.8333,6.5 51.1667,6.5 56.5,6.5C 56.5,7.5 56.5,8.5 56.5,9.5C 54.1137,9.25873 52.1137,9.9254 50.5,11.5C 49.3579,9.02827 47.3579,8.02827 44.5,8.5C 43.1667,8.5 41.8333,8.5 40.5,8.5C 40.5,7.83333 40.5,7.16667 40.5,6.5 Z"/></g>
<g><path style="opacity:1" fill="#544324" d="M 63.5,0.5 C 63.5,0.833333 63.5,1.16667 63.5,1.5C 62.5151,5.63441 62.1818,9.96775 62.5,14.5C 61.8333,14.1667 61.1667,13.8333 60.5,13.5C 60.1667,12.8333 59.8333,12.1667 59.5,11.5C 61.3435,9.72113 62.0102,7.38779 61.5,4.5C 60.8333,3.5 60.1667,2.5 59.5,1.5C 60.8333,1.16667 62.1667,0.833333 63.5,0.5 Z"/></g>
<g><path style="opacity:1" fill="#f7953b" d="M 17.5,3.5 C 19.1765,4.18342 19.8432,5.51676 19.5,7.5C 19.7845,9.41467 19.4511,11.0813 18.5,12.5C 17.5318,10.3926 17.1984,8.0593 17.5,5.5C 17.5,4.83333 17.5,4.16667 17.5,3.5 Z"/></g>
<g><path style="opacity:1" fill="#4d3d1f" d="M 40.5,8.5 C 41.8333,8.5 43.1667,8.5 44.5,8.5C 44.5,8.83333 44.5,9.16667 44.5,9.5C 41.2123,9.07299 38.2123,9.73966 35.5,11.5C 34.8165,11.1373 34.1499,10.8039 33.5,10.5C 33.1667,10.5 32.8333,10.5 32.5,10.5C 29.0381,9.51836 25.3714,9.18503 21.5,9.5C 21.5,9.16667 21.5,8.83333 21.5,8.5C 28.0221,7.2152 34.3555,7.2152 40.5,8.5 Z"/></g>
<g><path style="opacity:1" fill="#7d6a33" d="M 1.5,6.5 C 2.16667,7.5 2.83333,8.5 3.5,9.5C 3.5,10.8333 3.5,12.1667 3.5,13.5C 3.01131,14.9952 2.34464,16.3285 1.5,17.5C 1.5,13.8333 1.5,10.1667 1.5,6.5 Z"/></g>
<g><path style="opacity:1" fill="#624523" d="M 21.5,9.5 C 25.3714,9.18503 29.0381,9.51836 32.5,10.5C 25.6666,9.67042 22.9999,12.6704 24.5,19.5C 23.8333,18.8333 23.1667,18.1667 22.5,17.5C 22.6716,16.5084 22.3382,15.8417 21.5,15.5C 21.5,15.1667 21.5,14.8333 21.5,14.5C 21.5,12.8333 21.5,11.1667 21.5,9.5 Z"/></g>
<g><path style="opacity:1" fill="#653d27" d="M 44.5,9.5 C 44.5,9.83333 44.5,10.1667 44.5,10.5C 42.2646,10.2053 40.2646,10.5386 38.5,11.5C 37.0937,11.9731 36.427,12.9731 36.5,14.5C 35.8333,13.8333 35.1667,13.1667 34.5,12.5C 33.6618,12.1583 33.3284,11.4916 33.5,10.5C 34.1499,10.8039 34.8165,11.1373 35.5,11.5C 38.2123,9.73966 41.2123,9.07299 44.5,9.5 Z"/></g>
<g><path style="opacity:1" fill="#b2a78d" d="M -0.5,-0.5 C 19.8333,-0.5 40.1667,-0.5 60.5,-0.5C 51.3483,0.493561 42.015,0.826894 32.5,0.5C 21.8333,0.5 11.1667,0.5 0.5,0.5C 0.5,7.83333 0.5,15.1667 0.5,22.5C 0.5,30.1667 0.5,37.8333 0.5,45.5C 0.820506,50.6946 0.487173,55.6946 -0.5,60.5C -0.5,40.1667 -0.5,19.8333 -0.5,-0.5 Z"/></g>
<g><path style="opacity:1" fill="#f39d3a" d="M 17.5,5.5 C 17.1984,8.0593 17.5318,10.3926 18.5,12.5C 18.0679,13.7095 17.4013,14.7095 16.5,15.5C 16.7678,13.901 16.4345,12.5676 15.5,11.5C 15.0535,8.98989 15.7202,6.98989 17.5,5.5 Z"/></g>
<g><path style="opacity:1" fill="#d1c02b" d="M 8.5,7.5 C 9.16667,7.5 9.83333,7.5 10.5,7.5C 10.8333,8.83333 11.1667,10.1667 11.5,11.5C 11.8333,12.8333 12.1667,14.1667 12.5,15.5C 12.0252,17.7221 11.0252,18.3888 9.5,17.5C 11.3999,13.8567 10.3999,11.5234 6.5,10.5C 7.55114,9.77765 8.21781,8.77765 8.5,7.5 Z"/></g>
<g><path style="opacity:1" fill="#daad32" d="M 17.5,3.5 C 17.5,4.16667 17.5,4.83333 17.5,5.5C 15.7202,6.98989 15.0535,8.98989 15.5,11.5C 14.8333,11.5 14.5,11.8333 14.5,12.5C 13.8902,13.391 13.5569,14.391 13.5,15.5C 13.1667,15.5 12.8333,15.5 12.5,15.5C 12.1667,14.1667 11.8333,12.8333 11.5,11.5C 12.1667,11.5 12.5,11.1667 12.5,10.5C 14.0879,8.88669 15.0879,6.88669 15.5,4.5C 16.1667,4.16667 16.8333,3.83333 17.5,3.5 Z"/></g>
<g><path style="opacity:1" fill="#c98a35" d="M 14.5,12.5 C 14.5,11.8333 14.8333,11.5 15.5,11.5C 16.4345,12.5676 16.7678,13.901 16.5,15.5C 16.5,17.1667 16.5,18.8333 16.5,20.5C 17.8333,20.5 19.1667,20.5 20.5,20.5C 19.0813,21.4511 17.4147,21.7845 15.5,21.5C 15.81,18.2869 15.4767,15.2869 14.5,12.5 Z"/></g>
<g><path style="opacity:1" fill="#e08935" d="M 19.5,7.5 C 19.8333,7.5 20.1667,7.5 20.5,7.5C 20.1984,10.0593 20.5318,12.3926 21.5,14.5C 21.5,14.8333 21.5,15.1667 21.5,15.5C 21.7845,17.4147 21.4511,19.0813 20.5,20.5C 19.1667,20.5 17.8333,20.5 16.5,20.5C 16.5,18.8333 16.5,17.1667 16.5,15.5C 17.4013,14.7095 18.0679,13.7095 18.5,12.5C 19.4511,11.0813 19.7845,9.41467 19.5,7.5 Z"/></g>
<g><path style="opacity:1" fill="#d00d61" d="M 38.5,11.5 C 40.2646,10.5386 42.2646,10.2053 44.5,10.5C 45.5862,10.62 46.2528,11.2867 46.5,12.5C 45.7308,15.1147 45.3975,17.7814 45.5,20.5C 44.1667,22.1667 44.1667,23.8333 45.5,25.5C 45.5,26.1667 45.1667,26.5 44.5,26.5C 42.0065,26.8693 41.3398,26.2027 42.5,24.5C 42.5,24.1667 42.5,23.8333 42.5,23.5C 43.4614,21.7354 43.7947,19.7354 43.5,17.5C 44.5983,16.3991 44.765,15.0657 44,13.5C 43.3292,12.7476 42.4959,12.4142 41.5,12.5C 40.791,11.596 39.791,11.2627 38.5,11.5 Z"/></g>
<g><path style="opacity:1" fill="#7b2443" d="M 44.5,9.5 C 44.5,9.16667 44.5,8.83333 44.5,8.5C 47.3579,8.02827 49.3579,9.02827 50.5,11.5C 51.0998,12.8999 52.0998,13.8999 53.5,14.5C 52.8333,14.8333 52.1667,15.1667 51.5,15.5C 50.791,14.596 49.791,14.2627 48.5,14.5C 48.7678,16.099 48.4345,17.4324 47.5,18.5C 47.2924,16.0799 47.6258,13.7466 48.5,11.5C 47.6798,9.88882 46.3464,9.22216 44.5,9.5 Z"/></g>
<g><path style="opacity:1" fill="#94226d" d="M 56.5,9.5 C 57.1667,9.5 57.5,9.83333 57.5,10.5C 55.712,10.2148 54.0453,10.5481 52.5,11.5C 52.9569,12.2975 53.6236,12.6309 54.5,12.5C 54.6716,13.4916 54.3382,14.1583 53.5,14.5C 52.0998,13.8999 51.0998,12.8999 50.5,11.5C 52.1137,9.9254 54.1137,9.25873 56.5,9.5 Z"/></g>
<g><path style="opacity:1" fill="#930eb3" d="M 57.5,10.5 C 58.1667,10.8333 58.8333,11.1667 59.5,11.5C 59.8333,12.1667 60.1667,12.8333 60.5,13.5C 61.1495,15.4352 61.4828,17.4352 61.5,19.5C 58.9623,19.169 57.2957,17.8357 56.5,15.5C 55.8333,14.5 55.1667,13.5 54.5,12.5C 53.6236,12.6309 52.9569,12.2975 52.5,11.5C 54.0453,10.5481 55.712,10.2148 57.5,10.5 Z"/></g>
<g><path style="opacity:1" fill="#d8cb2d" d="M 6.5,11.5 C 7.26739,12.172 7.93406,13.0053 8.5,14C 7.26253,14.2321 6.26253,14.7321 5.5,15.5C 5.5,15.8333 5.5,16.1667 5.5,16.5C 4.46253,17.9303 3.79586,19.597 3.5,21.5C 1.82351,20.8166 1.15684,19.4832 1.5,17.5C 2.34464,16.3285 3.01131,14.9952 3.5,13.5C 4.22235,12.4489 5.22235,11.7822 6.5,11.5 Z"/></g>
<g><path style="opacity:1" fill="#b6ae27" d="M 6.5,11.5 C 6.5,11.1667 6.5,10.8333 6.5,10.5C 10.3999,11.5234 11.3999,13.8567 9.5,17.5C 9.16667,17.5 8.83333,17.5 8.5,17.5C 8.5,16.8333 8.16667,16.5 7.5,16.5C 7.15829,15.6618 6.49162,15.3284 5.5,15.5C 6.26253,14.7321 7.26253,14.2321 8.5,14C 7.93406,13.0053 7.26739,12.172 6.5,11.5 Z"/></g>
<g><path style="opacity:1" fill="#c73d27" d="M 32.5,10.5 C 32.8333,10.5 33.1667,10.5 33.5,10.5C 33.3284,11.4916 33.6618,12.1583 34.5,12.5C 34.7373,13.791 34.404,14.791 33.5,15.5C 31.7085,15.366 30.0418,15.6993 28.5,16.5C 29.1834,14.8235 30.5168,14.1568 32.5,14.5C 32.5,13.5 32.5,12.5 32.5,11.5C 26.6706,10.9998 24.3373,13.6665 25.5,19.5C 25.1667,19.5 24.8333,19.5 24.5,19.5C 22.9999,12.6704 25.6666,9.67042 32.5,10.5 Z"/></g>
<g><path style="opacity:1" fill="#b9143d" d="M 41.5,12.5 C 42.4959,12.4142 43.3292,12.7476 44,13.5C 44.765,15.0657 44.5983,16.3991 43.5,17.5C 42.3285,16.6554 40.9952,15.9887 39.5,15.5C 39.427,13.9731 40.0937,12.9731 41.5,12.5 Z"/></g>
<g><path style="opacity:1" fill="#662c34" d="M 51.5,15.5 C 50.5489,16.9187 50.2155,18.5853 50.5,20.5C 48.7973,19.3398 48.1307,20.0065 48.5,22.5C 48.1667,22.5 47.8333,22.5 47.5,22.5C 47.5,21.1667 47.5,19.8333 47.5,18.5C 48.4345,17.4324 48.7678,16.099 48.5,14.5C 49.791,14.2627 50.791,14.596 51.5,15.5 Z"/></g>
<g><path style="opacity:1" fill="#5c2d5a" d="M 60.5,13.5 C 61.1667,13.8333 61.8333,14.1667 62.5,14.5C 62.5,16.1667 62.5,17.8333 62.5,19.5C 62.1667,19.5 61.8333,19.5 61.5,19.5C 61.4828,17.4352 61.1495,15.4352 60.5,13.5 Z"/></g>
<g><path style="opacity:1" fill="#ef492c" d="M 28.5,16.5 C 28.5,17.1667 28.5,17.8333 28.5,18.5C 28.6716,19.4916 28.3382,20.1583 27.5,20.5C 26.8333,20.1667 26.1667,19.8333 25.5,19.5C 24.3373,13.6665 26.6706,10.9998 32.5,11.5C 32.5,12.5 32.5,13.5 32.5,14.5C 30.5168,14.1568 29.1834,14.8235 28.5,16.5 Z"/></g>
<g><path style="opacity:1" fill="#ca0871" d="M 44.5,10.5 C 44.5,10.1667 44.5,9.83333 44.5,9.5C 46.3464,9.22216 47.6798,9.88882 48.5,11.5C 47.6258,13.7466 47.2924,16.0799 47.5,18.5C 46.7321,19.2625 46.2321,20.2625 46,21.5C 45.6012,21.2716 45.4346,20.9382 45.5,20.5C 45.3975,17.7814 45.7308,15.1147 46.5,12.5C 46.2528,11.2867 45.5862,10.62 44.5,10.5 Z"/></g>
<g><path style="opacity:1" fill="#9b167e" d="M 54.5,12.5 C 55.1667,13.5 55.8333,14.5 56.5,15.5C 56.5,15.8333 56.5,16.1667 56.5,16.5C 53.8333,17.5 53.8333,18.5 56.5,19.5C 56.3284,20.4916 56.6618,21.1583 57.5,21.5C 57.5,21.8333 57.5,22.1667 57.5,22.5C 57.1667,22.5 56.8333,22.5 56.5,22.5C 56.1667,22.5 55.8333,22.5 55.5,22.5C 53.302,22.8799 51.6354,22.2132 50.5,20.5C 50.2155,18.5853 50.5489,16.9187 51.5,15.5C 52.1667,15.1667 52.8333,14.8333 53.5,14.5C 54.3382,14.1583 54.6716,13.4916 54.5,12.5 Z"/></g>
<g><path style="opacity:1" fill="#5f5327" d="M 12.5,15.5 C 12.8333,15.5 13.1667,15.5 13.5,15.5C 14.8333,17.5 14.8333,19.5 13.5,21.5C 13.1667,21.5 12.8333,21.5 12.5,21.5C 12.1788,19.9519 11.1788,19.2852 9.5,19.5C 9.5,20.5 9.5,21.5 9.5,22.5C 9.16667,22.5 8.83333,22.5 8.5,22.5C 8.5,20.8333 8.5,19.1667 8.5,17.5C 8.83333,17.5 9.16667,17.5 9.5,17.5C 11.0252,18.3888 12.0252,17.7221 12.5,15.5 Z"/></g>
<g><path style="opacity:1" fill="#745c25" d="M 14.5,12.5 C 15.4767,15.2869 15.81,18.2869 15.5,21.5C 17.4147,21.7845 19.0813,21.4511 20.5,20.5C 21.4511,19.0813 21.7845,17.4147 21.5,15.5C 22.3382,15.8417 22.6716,16.5084 22.5,17.5C 22.7135,19.1439 22.3802,20.6439 21.5,22C 19.2922,22.1909 17.2922,22.6909 15.5,23.5C 14.5,23.1667 13.8333,22.5 13.5,21.5C 14.8333,19.5 14.8333,17.5 13.5,15.5C 13.5569,14.391 13.8902,13.391 14.5,12.5 Z"/></g>
<g><path style="opacity:1" fill="#783822" d="M 33.5,15.5 C 32.5707,16.3149 31.5707,17.1482 30.5,18C 31.448,18.4828 32.448,18.6495 33.5,18.5C 33.5,18.8333 33.5,19.1667 33.5,19.5C 31.7085,19.634 30.0418,19.3007 28.5,18.5C 28.5,17.8333 28.5,17.1667 28.5,16.5C 30.0418,15.6993 31.7085,15.366 33.5,15.5 Z"/></g>
<g><path style="opacity:1" fill="#5d341f" d="M 34.5,12.5 C 35.1667,13.1667 35.8333,13.8333 36.5,14.5C 36.1201,16.698 36.7868,18.3646 38.5,19.5C 40.0414,20.6668 41.3748,22.0001 42.5,23.5C 42.5,23.8333 42.5,24.1667 42.5,24.5C 40.4862,24.6085 38.8195,23.9418 37.5,22.5C 36.4188,20.8664 35.0855,19.533 33.5,18.5C 32.448,18.6495 31.448,18.4828 30.5,18C 31.5707,17.1482 32.5707,16.3149 33.5,15.5C 34.404,14.791 34.7373,13.791 34.5,12.5 Z"/></g>
<g><path style="opacity:1" fill="#d11532" d="M 38.5,11.5 C 39.791,11.2627 40.791,11.596 41.5,12.5C 40.0937,12.9731 39.427,13.9731 39.5,15.5C 39.33,16.8221 39.6634,17.9887 40.5,19C 39.9056,19.4643 39.2389,19.631 38.5,19.5C 36.7868,18.3646 36.1201,16.698 36.5,14.5C 36.427,12.9731 37.0937,11.9731 38.5,11.5 Z"/></g>
<g><path style="opacity:1" fill="#461d33" d="M 56.5,16.5 C 56.5,17.5 56.5,18.5 56.5,19.5C 53.8333,18.5 53.8333,17.5 56.5,16.5 Z"/></g>
<g><path style="opacity:1" fill="#a42038" d="M 39.5,15.5 C 40.9952,15.9887 42.3285,16.6554 43.5,17.5C 43.7947,19.7354 43.4614,21.7354 42.5,23.5C 41.3748,22.0001 40.0414,20.6668 38.5,19.5C 39.2389,19.631 39.9056,19.4643 40.5,19C 39.6634,17.9887 39.33,16.8221 39.5,15.5 Z"/></g>
<g><path style="opacity:1" fill="#cfcc89" d="M 12.5,21.5 C 11.8333,21.8333 11.1667,22.1667 10.5,22.5C 10.1667,22.5 9.83333,22.5 9.5,22.5C 9.5,21.5 9.5,20.5 9.5,19.5C 11.1788,19.2852 12.1788,19.9519 12.5,21.5 Z"/></g>
<g><path style="opacity:1" fill="#d82f2a" d="M 28.5,18.5 C 30.0418,19.3007 31.7085,19.634 33.5,19.5C 34.7383,19.81 34.7383,20.31 33.5,21C 31.2884,21.7891 29.2884,21.6225 27.5,20.5C 28.3382,20.1583 28.6716,19.4916 28.5,18.5 Z"/></g>
<g><path style="opacity:1" fill="#852092" d="M 56.5,15.5 C 57.2957,17.8357 58.9623,19.169 61.5,19.5C 60.3285,20.3446 58.9952,21.0113 57.5,21.5C 56.6618,21.1583 56.3284,20.4916 56.5,19.5C 56.5,18.5 56.5,17.5 56.5,16.5C 56.5,16.1667 56.5,15.8333 56.5,15.5 Z"/></g>
<g><path style="opacity:1" fill="#8c3224" d="M 33.5,19.5 C 33.5,19.1667 33.5,18.8333 33.5,18.5C 35.0855,19.533 36.4188,20.8664 37.5,22.5C 36.6618,22.8417 36.3284,23.5084 36.5,24.5C 36.1667,24.5 35.8333,24.5 35.5,24.5C 33.3647,22.631 30.6981,21.9644 27.5,22.5C 26.8333,22.1667 26.1667,21.8333 25.5,21.5C 25.5,20.8333 25.5,20.1667 25.5,19.5C 26.1667,19.8333 26.8333,20.1667 27.5,20.5C 29.2884,21.6225 31.2884,21.7891 33.5,21C 34.7383,20.31 34.7383,19.81 33.5,19.5 Z"/></g>
<g><path style="opacity:1" fill="#bd1463" d="M 47.5,18.5 C 47.5,19.8333 47.5,21.1667 47.5,22.5C 46.8902,23.391 46.5569,24.391 46.5,25.5C 46.1667,25.5 45.8333,25.5 45.5,25.5C 44.1667,23.8333 44.1667,22.1667 45.5,20.5C 45.4346,20.9382 45.6012,21.2716 46,21.5C 46.2321,20.2625 46.7321,19.2625 47.5,18.5 Z"/></g>
<g><path style="opacity:1" fill="#4a3a1c" d="M 22.5,17.5 C 23.1667,18.1667 23.8333,18.8333 24.5,19.5C 24.8333,19.5 25.1667,19.5 25.5,19.5C 25.5,20.1667 25.5,20.8333 25.5,21.5C 24.9423,22.7899 23.9423,23.6232 22.5,24C 25.9535,24.6284 26.2869,25.7951 23.5,27.5C 21.5786,26.6373 19.5786,25.9707 17.5,25.5C 16.5,25.1667 15.8333,24.5 15.5,23.5C 17.2922,22.6909 19.2922,22.1909 21.5,22C 22.3802,20.6439 22.7135,19.1439 22.5,17.5 Z"/></g>
<g><path style="opacity:1" fill="#63522a" d="M 5.5,15.5 C 6.49162,15.3284 7.15829,15.6618 7.5,16.5C 6.52056,19.6248 6.18723,22.9581 6.5,26.5C 4.95186,26.1788 4.28519,25.1788 4.5,23.5C 5.36863,21.283 5.70197,18.9496 5.5,16.5C 5.5,16.1667 5.5,15.8333 5.5,15.5 Z"/></g>
<g><path style="opacity:1" fill="#54391e" d="M 27.5,22.5 C 30.6981,21.9644 33.3647,22.631 35.5,24.5C 34.3478,23.375 33.3478,23.375 32.5,24.5C 31.1667,24.5 29.8333,24.5 28.5,24.5C 27.6618,24.1583 27.3284,23.4916 27.5,22.5 Z"/></g>
<g><path style="opacity:1" fill="#b89319" d="M 12.5,21.5 C 12.8333,21.5 13.1667,21.5 13.5,21.5C 13.8333,22.5 14.5,23.1667 15.5,23.5C 15.8333,24.5 16.5,25.1667 17.5,25.5C 17.8333,26.1667 18.1667,26.8333 18.5,27.5C 17.8333,27.8333 17.1667,28.1667 16.5,28.5C 15.7375,27.7321 14.7375,27.2321 13.5,27C 12.7476,26.3292 12.4142,25.4959 12.5,24.5C 11.8333,23.8333 11.1667,23.1667 10.5,22.5C 11.1667,22.1667 11.8333,21.8333 12.5,21.5 Z"/></g>
<g><path style="opacity:1" fill="#413113" d="M 25.5,21.5 C 26.1667,21.8333 26.8333,22.1667 27.5,22.5C 27.3284,23.4916 27.6618,24.1583 28.5,24.5C 28.1667,25.8333 27.8333,27.1667 27.5,28.5C 26.1667,28.1667 24.8333,27.8333 23.5,27.5C 26.2869,25.7951 25.9535,24.6284 22.5,24C 23.9423,23.6232 24.9423,22.7899 25.5,21.5 Z"/></g>
<g><path style="opacity:1" fill="#46371f" d="M 50.5,20.5 C 51.6354,22.2132 53.302,22.8799 55.5,22.5C 55.5,23.5 55.5,24.5 55.5,25.5C 54.8333,25.8333 54.1667,26.1667 53.5,26.5C 52.7043,24.1643 51.0377,22.831 48.5,22.5C 48.1307,20.0065 48.7973,19.3398 50.5,20.5 Z"/></g>
<g><path style="opacity:1" fill="#685427" d="M 61.5,28.5 C 60.4168,28.4606 59.4168,28.1272 58.5,27.5C 57.7025,27.9569 57.3691,28.6236 57.5,29.5C 57.1667,29.5 56.8333,29.5 56.5,29.5C 56.5,27.1667 56.5,24.8333 56.5,22.5C 56.8333,22.5 57.1667,22.5 57.5,22.5C 58.5832,22.4606 59.5832,22.1272 60.5,21.5C 61.4742,23.7427 61.8076,26.076 61.5,28.5 Z"/></g>
<g><path style="opacity:1" fill="#bc293f" d="M 37.5,22.5 C 38.8195,23.9418 40.4862,24.6085 42.5,24.5C 41.3398,26.2027 42.0065,26.8693 44.5,26.5C 44.5,27.1667 44.1667,27.5 43.5,27.5C 40.3695,28.0922 38.0361,27.0922 36.5,24.5C 36.3284,23.5084 36.6618,22.8417 37.5,22.5 Z"/></g>
<g><path style="opacity:1" fill="#47391e" d="M 53.5,26.5 C 54.1667,26.1667 54.8333,25.8333 55.5,25.5C 55.5,26.8333 55.5,28.1667 55.5,29.5C 54.5489,30.9187 54.2155,32.5853 54.5,34.5C 52.6776,34.1692 51.0109,33.5025 49.5,32.5C 49.5,31.1667 48.8333,30.5 47.5,30.5C 48.1098,29.609 48.4431,28.609 48.5,27.5C 48.5,27.1667 48.5,26.8333 48.5,26.5C 49.1515,25.9094 49.8182,25.2427 50.5,24.5C 51.2621,25.6283 51.9288,26.7949 52.5,28C 54.6354,28.6053 54.9687,28.1053 53.5,26.5 Z"/></g>
<g><path style="opacity:1" fill="#5e4b1f" d="M 4.5,23.5 C 4.28519,25.1788 4.95186,26.1788 6.5,26.5C 6.5,29.1667 6.5,31.8333 6.5,34.5C 6.5,37.5 6.5,40.5 6.5,43.5C 6.5,47.8333 6.5,52.1667 6.5,56.5C 5.83333,56.5 5.5,56.1667 5.5,55.5C 5.5,52.1667 5.5,48.8333 5.5,45.5C 5.5,43.5 5.5,41.5 5.5,39.5C 5.5,38.8333 5.5,38.1667 5.5,37.5C 5.5,36.5 5.5,35.5 5.5,34.5C 5.66212,32.4727 5.49546,30.4727 5,28.5C 3.98873,27.6634 2.82207,27.33 1.5,27.5C 1.5,26.1667 1.5,24.8333 1.5,23.5C 2.5,23.5 3.5,23.5 4.5,23.5 Z"/></g>
<g><path style="opacity:1" fill="#4f3f1d" d="M 9.5,22.5 C 9.83333,22.5 10.1667,22.5 10.5,22.5C 11.1667,23.1667 11.8333,23.8333 12.5,24.5C 11.6236,24.3691 10.9569,24.7025 10.5,25.5C 11.3094,27.0709 11.6427,28.7376 11.5,30.5C 10.548,29.548 9.54804,28.548 8.5,27.5C 9.30937,25.9291 9.64271,24.2624 9.5,22.5 Z"/></g>
<g><path style="opacity:1" fill="#4d3e20" d="M 47.5,22.5 C 47.8333,22.5 48.1667,22.5 48.5,22.5C 51.0377,22.831 52.7043,24.1643 53.5,26.5C 54.9687,28.1053 54.6354,28.6053 52.5,28C 51.9288,26.7949 51.2621,25.6283 50.5,24.5C 49.8182,25.2427 49.1515,25.9094 48.5,26.5C 48.5912,24.3023 47.9245,23.9689 46.5,25.5C 46.5569,24.391 46.8902,23.391 47.5,22.5 Z"/></g>
<g><path style="opacity:1" fill="#c5c177" d="M 18.5,27.5 C 20.1788,27.2852 21.1788,27.9519 21.5,29.5C 20.5084,29.3284 19.8417,29.6618 19.5,30.5C 18.6522,31.625 17.6522,31.625 16.5,30.5C 16.5,29.8333 16.5,29.1667 16.5,28.5C 17.1667,28.1667 17.8333,27.8333 18.5,27.5 Z"/></g>
<g><path style="opacity:1" fill="#49391a" d="M 28.5,24.5 C 29.8333,24.5 31.1667,24.5 32.5,24.5C 34.2624,25.2623 35.2624,26.5956 35.5,28.5C 32.8333,28.5 30.1667,28.5 27.5,28.5C 27.8333,27.1667 28.1667,25.8333 28.5,24.5 Z"/></g>
<g><path style="opacity:1" fill="#513b1e" d="M 32.5,24.5 C 33.3478,23.375 34.3478,23.375 35.5,24.5C 35.8333,24.5 36.1667,24.5 36.5,24.5C 38.0361,27.0922 40.3695,28.0922 43.5,27.5C 42.5,28.1667 41.5,28.8333 40.5,29.5C 38.7085,29.634 37.0418,29.3007 35.5,28.5C 35.2624,26.5956 34.2624,25.2623 32.5,24.5 Z"/></g>
<g><path style="opacity:1" fill="#59472a" d="M 61.5,19.5 C 61.8333,19.5 62.1667,19.5 62.5,19.5C 62.5,32.1667 62.5,44.8333 62.5,57.5C 62.1667,57.5 61.8333,57.5 61.5,57.5C 61.5,52.8333 61.5,48.1667 61.5,43.5C 61.5,40.8333 61.5,38.1667 61.5,35.5C 61.5,33.1667 61.5,30.8333 61.5,28.5C 61.8076,26.076 61.4742,23.7427 60.5,21.5C 59.5832,22.1272 58.5832,22.4606 57.5,22.5C 57.5,22.1667 57.5,21.8333 57.5,21.5C 58.9952,21.0113 60.3285,20.3446 61.5,19.5 Z"/></g>
<g><path style="opacity:1" fill="#473816" d="M 12.5,24.5 C 12.4142,25.4959 12.7476,26.3292 13.5,27C 14.7375,27.2321 15.7375,27.7321 16.5,28.5C 14.5393,29.4602 12.8726,30.7935 11.5,32.5C 11.5,31.8333 11.5,31.1667 11.5,30.5C 11.6427,28.7376 11.3094,27.0709 10.5,25.5C 10.9569,24.7025 11.6236,24.3691 12.5,24.5 Z"/></g>
<g><path style="opacity:1" fill="#534520" d="M 17.5,25.5 C 19.5786,25.9707 21.5786,26.6373 23.5,27.5C 24.8333,27.8333 26.1667,28.1667 27.5,28.5C 27.5,28.8333 27.5,29.1667 27.5,29.5C 25.6776,29.8308 24.0109,30.4975 22.5,31.5C 22.6716,30.5084 22.3382,29.8417 21.5,29.5C 21.1788,27.9519 20.1788,27.2852 18.5,27.5C 18.1667,26.8333 17.8333,26.1667 17.5,25.5 Z"/></g>
<g><path style="opacity:1" fill="#b59819" d="M 48.5,26.5 C 48.5,26.8333 48.5,27.1667 48.5,27.5C 46.0647,29.271 44.398,31.6044 43.5,34.5C 42.8333,35.1667 42.1667,35.8333 41.5,36.5C 40.8333,38.1667 40.1667,39.8333 39.5,41.5C 39.5,40.8333 39.5,40.1667 39.5,39.5C 39.3459,35.9746 40.6792,33.1413 43.5,31C 42.552,30.5172 41.552,30.3505 40.5,30.5C 40.5,30.1667 40.5,29.8333 40.5,29.5C 41.5,28.8333 42.5,28.1667 43.5,27.5C 44.1667,27.5 44.5,27.1667 44.5,26.5C 45.1667,26.5 45.5,26.1667 45.5,25.5C 45.8333,25.5 46.1667,25.5 46.5,25.5C 47.9245,23.9689 48.5912,24.3023 48.5,26.5 Z"/></g>
<g><path style="opacity:1" fill="#392e16" d="M 7.5,16.5 C 8.16667,16.5 8.5,16.8333 8.5,17.5C 8.5,19.1667 8.5,20.8333 8.5,22.5C 7.372,25.7814 7.372,29.1148 8.5,32.5C 8.5,33.8333 7.83333,34.5 6.5,34.5C 6.5,31.8333 6.5,29.1667 6.5,26.5C 6.18723,22.9581 6.52056,19.6248 7.5,16.5 Z"/></g>
<g><path style="opacity:1" fill="#7b6638" d="M 1.5,28.5 C 1.5,28.1667 1.5,27.8333 1.5,27.5C 2.82207,27.33 3.98873,27.6634 5,28.5C 5.49546,30.4727 5.66212,32.4727 5.5,34.5C 4.5041,34.5858 3.67076,34.2524 3,33.5C 2.80192,31.6183 2.30192,29.9516 1.5,28.5 Z"/></g>
<g><path style="opacity:1" fill="#493b1e" d="M 8.5,22.5 C 8.83333,22.5 9.16667,22.5 9.5,22.5C 9.64271,24.2624 9.30937,25.9291 8.5,27.5C 9.54804,28.548 10.548,29.548 11.5,30.5C 11.5,31.1667 11.5,31.8333 11.5,32.5C 11.5,32.8333 11.5,33.1667 11.5,33.5C 11.5654,33.9382 11.3988,34.2716 11,34.5C 10.2917,33.6195 9.45837,32.9528 8.5,32.5C 7.372,29.1148 7.372,25.7814 8.5,22.5 Z"/></g>
<g><path style="opacity:1" fill="#433518" d="M 16.5,28.5 C 16.5,29.1667 16.5,29.8333 16.5,30.5C 16.5,31.5 16.5,32.5 16.5,33.5C 15.0413,33.4326 13.7079,33.7659 12.5,34.5C 12.5,33.8333 12.1667,33.5 11.5,33.5C 11.5,33.1667 11.5,32.8333 11.5,32.5C 12.8726,30.7935 14.5393,29.4602 16.5,28.5 Z"/></g>
<g><path style="opacity:1" fill="#899289" d="M 19.5,30.5 C 19.8417,29.6618 20.5084,29.3284 21.5,29.5C 22.3382,29.8417 22.6716,30.5084 22.5,31.5C 22.1583,32.3382 21.4916,32.6716 20.5,32.5C 20.6716,31.5084 20.3382,30.8417 19.5,30.5 Z"/></g>
<g><path style="opacity:1" fill="#af8928" d="M 27.5,28.5 C 30.1667,28.5 32.8333,28.5 35.5,28.5C 37.0418,29.3007 38.7085,29.634 40.5,29.5C 40.5,29.8333 40.5,30.1667 40.5,30.5C 40.5,30.8333 40.5,31.1667 40.5,31.5C 35.8333,31.5 31.1667,31.5 26.5,31.5C 26.0618,31.5654 25.7284,31.3988 25.5,31C 26.4158,30.7216 27.0825,30.2216 27.5,29.5C 27.5,29.1667 27.5,28.8333 27.5,28.5 Z"/></g>
<g><path style="opacity:1" fill="#524117" d="M 48.5,27.5 C 48.4431,28.609 48.1098,29.609 47.5,30.5C 47.0825,31.2216 46.4158,31.7216 45.5,32C 46.6091,33.813 45.9424,34.6463 43.5,34.5C 44.398,31.6044 46.0647,29.271 48.5,27.5 Z"/></g>
<g><path style="opacity:1" fill="#42351c" d="M 55.5,29.5 C 54.7322,36.0055 54.7322,42.3388 55.5,48.5C 55.5,50.8333 55.5,53.1667 55.5,55.5C 52.9407,55.1984 50.6074,55.5318 48.5,56.5C 47.5,56.1667 46.8333,55.5 46.5,54.5C 46.8333,54.5 47.1667,54.5 47.5,54.5C 48.8333,54.5 50.1667,54.5 51.5,54.5C 52.5,54.5 53.5,54.5 54.5,54.5C 54.6399,52.8762 53.9733,51.7096 52.5,51C 53.6489,48.5408 53.6489,46.0408 52.5,43.5C 53.7199,41.9504 53.7199,40.2837 52.5,38.5C 53.404,37.791 53.7373,36.791 53.5,35.5C 52.1667,35.5 50.8333,35.5 49.5,35.5C 49.5,34.5 49.5,33.5 49.5,32.5C 51.0109,33.5025 52.6776,34.1692 54.5,34.5C 54.2155,32.5853 54.5489,30.9187 55.5,29.5 Z"/></g>
<g><path style="opacity:1" fill="#847246" d="M 5.5,16.5 C 5.70197,18.9496 5.36863,21.283 4.5,23.5C 3.5,23.5 2.5,23.5 1.5,23.5C 1.5,24.8333 1.5,26.1667 1.5,27.5C 1.5,27.8333 1.5,28.1667 1.5,28.5C 1.5,30.8333 1.5,33.1667 1.5,35.5C 1.5,37.1667 1.5,38.8333 1.5,40.5C 1.5,41.5 1.5,42.5 1.5,43.5C 1.5,44.1667 1.5,44.8333 1.5,45.5C 1.16667,45.5 0.833333,45.5 0.5,45.5C 0.5,37.8333 0.5,30.1667 0.5,22.5C 1.79105,22.7373 2.79105,22.404 3.5,21.5C 3.79586,19.597 4.46253,17.9303 5.5,16.5 Z"/></g>
<g><path style="opacity:1" fill="#ced9c7" d="M 26.5,31.5 C 31.1667,31.5 35.8333,31.5 40.5,31.5C 38.5,32.1667 36.5,32.8333 34.5,33.5C 32.0504,33.298 29.717,33.6314 27.5,34.5C 27.1583,33.6618 26.4916,33.3284 25.5,33.5C 25.8333,32.8333 26.1667,32.1667 26.5,31.5 Z"/></g>
<g><path style="opacity:1" fill="#786232" d="M 61.5,28.5 C 61.5,30.8333 61.5,33.1667 61.5,35.5C 60.1667,35.5 58.8333,35.5 57.5,35.5C 57.5,33.5 57.5,31.5 57.5,29.5C 57.3691,28.6236 57.7025,27.9569 58.5,27.5C 59.4168,28.1272 60.4168,28.4606 61.5,28.5 Z"/></g>
<g><path style="opacity:1" fill="#40341a" d="M 8.5,32.5 C 9.45837,32.9528 10.2917,33.6195 11,34.5C 11.3988,34.2716 11.5654,33.9382 11.5,33.5C 12.1667,33.5 12.5,33.8333 12.5,34.5C 12.5,34.8333 12.5,35.1667 12.5,35.5C 12.6106,37.6477 11.944,37.981 10.5,36.5C 9.70245,36.9569 9.36912,37.6236 9.5,38.5C 7.78679,39.6354 7.12012,41.302 7.5,43.5C 7.16667,43.5 6.83333,43.5 6.5,43.5C 6.5,40.5 6.5,37.5 6.5,34.5C 7.83333,34.5 8.5,33.8333 8.5,32.5 Z"/></g>
<g><path style="opacity:1" fill="#514420" d="M 16.5,30.5 C 17.6522,31.625 18.6522,31.625 19.5,30.5C 20.3382,30.8417 20.6716,31.5084 20.5,32.5C 20.5,33.1667 20.5,33.8333 20.5,34.5C 19.8333,35.1667 19.1667,35.8333 18.5,36.5C 18.2178,35.2223 17.5511,34.2223 16.5,33.5C 16.5,32.5 16.5,31.5 16.5,30.5 Z"/></g>
<g><path style="opacity:1" fill="#b1c1c3" d="M 40.5,30.5 C 41.552,30.3505 42.552,30.5172 43.5,31C 40.6792,33.1413 39.3459,35.9746 39.5,39.5C 38.8333,38.1667 38.1667,36.8333 37.5,35.5C 36.8333,35.1667 36.1667,34.8333 35.5,34.5C 34.8333,34.5 34.5,34.1667 34.5,33.5C 36.5,32.8333 38.5,32.1667 40.5,31.5C 40.5,31.1667 40.5,30.8333 40.5,30.5 Z"/></g>
<g><path style="opacity:1" fill="#48391c" d="M 16.5,33.5 C 17.5511,34.2223 18.2178,35.2223 18.5,36.5C 17.5489,37.9187 17.2155,39.5853 17.5,41.5C 16.7784,41.0825 16.2784,40.4158 16,39.5C 15.6012,39.7284 15.4346,40.0618 15.5,40.5C 14.6873,38.7392 13.6873,37.0725 12.5,35.5C 12.5,35.1667 12.5,34.8333 12.5,34.5C 13.7079,33.7659 15.0413,33.4326 16.5,33.5 Z"/></g>
<g><path style="opacity:1" fill="#b5a432" d="M 27.5,29.5 C 27.0825,30.2216 26.4158,30.7216 25.5,31C 25.7284,31.3988 26.0618,31.5654 26.5,31.5C 26.1667,32.1667 25.8333,32.8333 25.5,33.5C 23.9731,33.427 22.9731,34.0937 22.5,35.5C 22.1667,35.5 21.8333,35.5 21.5,35.5C 21.5,34.8333 21.1667,34.5 20.5,34.5C 20.5,33.8333 20.5,33.1667 20.5,32.5C 21.4916,32.6716 22.1583,32.3382 22.5,31.5C 24.0109,30.4975 25.6776,29.8308 27.5,29.5 Z"/></g>
<g><path style="opacity:1" fill="#6e5829" d="M 1.5,28.5 C 2.30192,29.9516 2.80192,31.6183 3,33.5C 3.67076,34.2524 4.5041,34.5858 5.5,34.5C 5.5,35.5 5.5,36.5 5.5,37.5C 4.53261,36.1938 3.19928,35.5271 1.5,35.5C 1.5,33.1667 1.5,30.8333 1.5,28.5 Z"/></g>
<g><path style="opacity:1" fill="#bd9e22" d="M 20.5,34.5 C 21.1667,34.5 21.5,34.8333 21.5,35.5C 19.819,38.582 19.1524,41.9153 19.5,45.5C 18.5233,42.7131 18.19,39.7131 18.5,36.5C 19.1667,35.8333 19.8333,35.1667 20.5,34.5 Z"/></g>
<g><path style="opacity:1" fill="#b4c7d1" d="M 25.5,33.5 C 26.4916,33.3284 27.1583,33.6618 27.5,34.5C 27.5,34.8333 27.5,35.1667 27.5,35.5C 26.2719,36.3065 25.2719,37.3065 24.5,38.5C 24.7148,36.8212 24.0481,35.8212 22.5,35.5C 22.9731,34.0937 23.9731,33.427 25.5,33.5 Z"/></g>
<g><path style="opacity:1" fill="#c8ae2a" d="M 34.5,33.5 C 34.5,34.1667 34.8333,34.5 35.5,34.5C 33.2854,35.2679 30.9521,35.9346 28.5,36.5C 27.8333,36.5 27.5,36.1667 27.5,35.5C 27.5,35.1667 27.5,34.8333 27.5,34.5C 29.717,33.6314 32.0504,33.298 34.5,33.5 Z"/></g>
<g><path style="opacity:1" fill="#4b3e22" d="M 47.5,30.5 C 48.8333,30.5 49.5,31.1667 49.5,32.5C 49.5,33.5 49.5,34.5 49.5,35.5C 48.0813,36.4511 46.4147,36.7845 44.5,36.5C 43.6618,36.1583 43.3284,35.4916 43.5,34.5C 45.9424,34.6463 46.6091,33.813 45.5,32C 46.4158,31.7216 47.0825,31.2216 47.5,30.5 Z"/></g>
<g><path style="opacity:1" fill="#a9922c" d="M 27.5,35.5 C 27.5,36.1667 27.8333,36.5 28.5,36.5C 28.5,36.8333 28.5,37.1667 28.5,37.5C 26.655,38.9955 26.3217,40.6621 27.5,42.5C 26.8333,43.1667 26.1667,43.8333 25.5,44.5C 25.1667,44.5 24.8333,44.5 24.5,44.5C 24.5,42.5 24.5,40.5 24.5,38.5C 25.2719,37.3065 26.2719,36.3065 27.5,35.5 Z"/></g>
<g><path style="opacity:1" fill="#433417" d="M 49.5,35.5 C 50.8333,35.5 52.1667,35.5 53.5,35.5C 53.7373,36.791 53.404,37.791 52.5,38.5C 52.0623,37.4937 51.3957,37.4937 50.5,38.5C 47.9179,38.9746 45.9179,38.3079 44.5,36.5C 46.4147,36.7845 48.0813,36.4511 49.5,35.5 Z"/></g>
<g><path style="opacity:1" fill="#3e3014" d="M 12.5,35.5 C 13.6873,37.0725 14.6873,38.7392 15.5,40.5C 15.5,41.1667 15.5,41.8333 15.5,42.5C 13.9826,42.4894 12.8159,41.8228 12,40.5C 11.7216,41.4158 11.2216,42.0825 10.5,42.5C 10.7678,40.901 10.4345,39.5676 9.5,38.5C 9.36912,37.6236 9.70245,36.9569 10.5,36.5C 11.944,37.981 12.6106,37.6477 12.5,35.5 Z"/></g>
<g><path style="opacity:1" fill="#3d3014" d="M 35.5,34.5 C 36.1667,34.8333 36.8333,35.1667 37.5,35.5C 37.5,35.8333 37.5,36.1667 37.5,36.5C 36.596,37.209 36.2627,38.209 36.5,39.5C 34.8333,39.5 33.1667,39.5 31.5,39.5C 30.7777,38.4489 29.7777,37.7822 28.5,37.5C 28.5,37.1667 28.5,36.8333 28.5,36.5C 30.9521,35.9346 33.2854,35.2679 35.5,34.5 Z"/></g>
<g><path style="opacity:1" fill="#6f5b2c" d="M 1.5,35.5 C 3.19928,35.5271 4.53261,36.1938 5.5,37.5C 5.5,38.1667 5.5,38.8333 5.5,39.5C 4.16667,39.8333 2.83333,40.1667 1.5,40.5C 1.5,38.8333 1.5,37.1667 1.5,35.5 Z"/></g>
<g><path style="opacity:1" fill="#4d4a3e" d="M 28.5,37.5 C 29.7777,37.7822 30.7777,38.4489 31.5,39.5C 31.5,39.8333 31.5,40.1667 31.5,40.5C 29.847,40.6596 28.5137,41.3263 27.5,42.5C 26.3217,40.6621 26.655,38.9955 28.5,37.5 Z"/></g>
<g><path style="opacity:1" fill="#463719" d="M 43.5,34.5 C 43.3284,35.4916 43.6618,36.1583 44.5,36.5C 45.9179,38.3079 47.9179,38.9746 50.5,38.5C 50.5,39.5 50.5,40.5 50.5,41.5C 48.1667,41.5 45.8333,41.5 43.5,41.5C 41.744,40.4479 41.0773,38.7812 41.5,36.5C 42.1667,35.8333 42.8333,35.1667 43.5,34.5 Z"/></g>
<g><path style="opacity:1" fill="#4a3d21" d="M 52.5,38.5 C 53.7199,40.2837 53.7199,41.9504 52.5,43.5C 51.2223,43.7822 50.2223,44.4489 49.5,45.5C 48.5,45.1667 47.8333,44.5 47.5,43.5C 48.5,42.8333 49.5,42.1667 50.5,41.5C 50.5,40.5 50.5,39.5 50.5,38.5C 51.3957,37.4937 52.0623,37.4937 52.5,38.5 Z"/></g>
<g><path style="opacity:1" fill="#e7f1f6" d="M 22.5,35.5 C 24.0481,35.8212 24.7148,36.8212 24.5,38.5C 24.5,40.5 24.5,42.5 24.5,44.5C 24.5,44.8333 24.5,45.1667 24.5,45.5C 23.5,45.5 22.5,45.5 21.5,45.5C 21.3424,42.0977 21.6758,38.7644 22.5,35.5 Z"/></g>
<g><path style="opacity:1" fill="#b28c1b" d="M 37.5,36.5 C 37.5,38.1667 37.5,39.8333 37.5,41.5C 35.8333,41.5 34.1667,41.5 32.5,41.5C 32.5,40.8333 32.1667,40.5 31.5,40.5C 31.5,40.1667 31.5,39.8333 31.5,39.5C 33.1667,39.5 34.8333,39.5 36.5,39.5C 36.2627,38.209 36.596,37.209 37.5,36.5 Z"/></g>
<g><path style="opacity:1" fill="#372d17" d="M 55.5,22.5 C 55.8333,22.5 56.1667,22.5 56.5,22.5C 56.5,24.8333 56.5,27.1667 56.5,29.5C 56.5,35.8333 56.5,42.1667 56.5,48.5C 56.1667,48.5 55.8333,48.5 55.5,48.5C 54.7322,42.3388 54.7322,36.0055 55.5,29.5C 55.5,28.1667 55.5,26.8333 55.5,25.5C 55.5,24.5 55.5,23.5 55.5,22.5 Z"/></g>
<g><path style="opacity:1" fill="#715b2b" d="M 57.5,35.5 C 58.8333,35.5 60.1667,35.5 61.5,35.5C 61.5,38.1667 61.5,40.8333 61.5,43.5C 60.1667,43.5 59.5,44.1667 59.5,45.5C 58.8333,45.5 58.1667,45.5 57.5,45.5C 57.5,42.1667 57.5,38.8333 57.5,35.5 Z"/></g>
<g><path style="opacity:1" fill="#7b6638" d="M 5.5,39.5 C 5.5,41.5 5.5,43.5 5.5,45.5C 4.16667,44.8333 2.83333,44.1667 1.5,43.5C 1.5,42.5 1.5,41.5 1.5,40.5C 2.83333,40.1667 4.16667,39.8333 5.5,39.5 Z"/></g>
<g><path style="opacity:1" fill="#bfcbcd" d="M 21.5,35.5 C 21.8333,35.5 22.1667,35.5 22.5,35.5C 21.6758,38.7644 21.3424,42.0977 21.5,45.5C 22.5,45.5 23.5,45.5 24.5,45.5C 23.4324,46.4345 22.099,46.7678 20.5,46.5C 20.5,45.8333 20.1667,45.5 19.5,45.5C 19.1524,41.9153 19.819,38.582 21.5,35.5 Z"/></g>
<g><path style="opacity:1" fill="#c3b22e" d="M 31.5,40.5 C 32.1667,40.5 32.5,40.8333 32.5,41.5C 32.5,41.8333 32.5,42.1667 32.5,42.5C 30.2543,43.4552 27.921,44.1218 25.5,44.5C 26.1667,43.8333 26.8333,43.1667 27.5,42.5C 28.5137,41.3263 29.847,40.6596 31.5,40.5 Z"/></g>
<g><path style="opacity:1" fill="#a69b6c" d="M 37.5,35.5 C 38.1667,36.8333 38.8333,38.1667 39.5,39.5C 39.5,40.1667 39.5,40.8333 39.5,41.5C 39.5,41.8333 39.5,42.1667 39.5,42.5C 37.1667,42.5 34.8333,42.5 32.5,42.5C 32.5,42.1667 32.5,41.8333 32.5,41.5C 34.1667,41.5 35.8333,41.5 37.5,41.5C 37.5,39.8333 37.5,38.1667 37.5,36.5C 37.5,36.1667 37.5,35.8333 37.5,35.5 Z"/></g>
<g><path style="opacity:1" fill="#4c3d1c" d="M 43.5,41.5 C 45.8333,41.5 48.1667,41.5 50.5,41.5C 49.5,42.1667 48.5,42.8333 47.5,43.5C 47.1667,43.5 46.8333,43.5 46.5,43.5C 45.8333,43.5 45.5,43.8333 45.5,44.5C 43.9519,44.1788 43.2852,43.1788 43.5,41.5 Z"/></g>
<g><path style="opacity:1" fill="#755818" d="M 18.5,36.5 C 18.19,39.7131 18.5233,42.7131 19.5,45.5C 20.1667,45.5 20.5,45.8333 20.5,46.5C 19.8333,47.1667 19.1667,47.8333 18.5,48.5C 18.5,48.1667 18.5,47.8333 18.5,47.5C 17.6586,45.6208 17.3253,43.6208 17.5,41.5C 17.2155,39.5853 17.5489,37.9187 18.5,36.5 Z"/></g>
<g><path style="opacity:1" fill="#becdc8" d="M 32.5,42.5 C 34.8333,42.5 37.1667,42.5 39.5,42.5C 42.4145,44.2389 43.0812,46.5722 41.5,49.5C 40.8333,48.1667 39.8333,47.1667 38.5,46.5C 37.8333,46.1667 37.1667,45.8333 36.5,45.5C 36.1344,44.3054 35.301,43.6387 34,43.5C 31.3226,44.222 28.8226,45.222 26.5,46.5C 26.1583,45.6618 25.4916,45.3284 24.5,45.5C 24.5,45.1667 24.5,44.8333 24.5,44.5C 24.8333,44.5 25.1667,44.5 25.5,44.5C 27.921,44.1218 30.2543,43.4552 32.5,42.5 Z"/></g>
<g><path style="opacity:1" fill="#a2882d" d="M 41.5,36.5 C 41.0773,38.7812 41.744,40.4479 43.5,41.5C 43.2852,43.1788 43.9519,44.1788 45.5,44.5C 45.6747,46.6208 45.3414,48.6208 44.5,50.5C 43.6618,50.8417 43.3284,51.5084 43.5,52.5C 42.5084,52.3284 41.8417,52.6618 41.5,53.5C 41.1667,53.5 40.8333,53.5 40.5,53.5C 40.5,52.8333 40.5,52.1667 40.5,51.5C 40.8333,50.8333 41.1667,50.1667 41.5,49.5C 43.0812,46.5722 42.4145,44.2389 39.5,42.5C 39.5,42.1667 39.5,41.8333 39.5,41.5C 40.1667,39.8333 40.8333,38.1667 41.5,36.5 Z"/></g>
<g><path style="opacity:1" fill="#493b1e" d="M 9.5,38.5 C 10.4345,39.5676 10.7678,40.901 10.5,42.5C 11.6935,43.2719 12.6935,44.2719 13.5,45.5C 13.0269,46.9063 12.0269,47.573 10.5,47.5C 10.3059,43.9952 9.30591,43.6618 7.5,46.5C 7.5,45.5 7.5,44.5 7.5,43.5C 7.12012,41.302 7.78679,39.6354 9.5,38.5 Z"/></g>
<g><path style="opacity:1" fill="#4a3c20" d="M 17.5,41.5 C 17.3253,43.6208 17.6586,45.6208 18.5,47.5C 17.209,47.7373 16.209,47.404 15.5,46.5C 16.3543,45.3684 16.3543,44.035 15.5,42.5C 15.5,41.8333 15.5,41.1667 15.5,40.5C 15.4346,40.0618 15.6012,39.7284 16,39.5C 16.2784,40.4158 16.7784,41.0825 17.5,41.5 Z"/></g>
<g><path style="opacity:1" fill="#312711" d="M 6.5,43.5 C 6.83333,43.5 7.16667,43.5 7.5,43.5C 7.5,44.5 7.5,45.5 7.5,46.5C 7.5,47.8333 7.5,49.1667 7.5,50.5C 7.5,51.8333 7.5,53.1667 7.5,54.5C 7.83333,55.1667 8.16667,55.8333 8.5,56.5C 7.83333,56.5 7.16667,56.5 6.5,56.5C 6.5,52.1667 6.5,47.8333 6.5,43.5 Z"/></g>
<g><path style="opacity:1" fill="#443516" d="M 15.5,42.5 C 16.3543,44.035 16.3543,45.3684 15.5,46.5C 14.8333,46.1667 14.1667,45.8333 13.5,45.5C 12.6935,44.2719 11.6935,43.2719 10.5,42.5C 11.2216,42.0825 11.7216,41.4158 12,40.5C 12.8159,41.8228 13.9826,42.4894 15.5,42.5 Z"/></g>
<g><path style="opacity:1" fill="#cdbe3a" d="M 36.5,45.5 C 35.209,45.2627 34.209,45.596 33.5,46.5C 32.5,46.5 31.5,46.5 30.5,46.5C 29.8333,47.1667 29.1667,47.8333 28.5,48.5C 27.5,48.1667 26.8333,47.5 26.5,46.5C 28.8226,45.222 31.3226,44.222 34,43.5C 35.301,43.6387 36.1344,44.3054 36.5,45.5 Z"/></g>
<g><path style="opacity:1" fill="#806e26" d="M 33.5,46.5 C 34.209,45.596 35.209,45.2627 36.5,45.5C 37.1667,45.8333 37.8333,46.1667 38.5,46.5C 38.6716,47.4916 38.3382,48.1583 37.5,48.5C 37.1583,47.6618 36.4916,47.3284 35.5,47.5C 35.1583,46.6618 34.4916,46.3284 33.5,46.5 Z"/></g>
<g><path style="opacity:1" fill="#493b1f" d="M 46.5,43.5 C 47.2653,46.0961 47.5987,48.7628 47.5,51.5C 46.609,50.8902 45.609,50.5569 44.5,50.5C 45.3414,48.6208 45.6747,46.6208 45.5,44.5C 45.5,43.8333 45.8333,43.5 46.5,43.5 Z"/></g>
<g><path style="opacity:1" fill="#665121" d="M 61.5,43.5 C 61.5,48.1667 61.5,52.8333 61.5,57.5C 60.609,56.8902 59.609,56.5569 58.5,56.5C 58.7214,55.2652 59.3881,54.2652 60.5,53.5C 58.3415,51.0456 58.0082,48.3789 59.5,45.5C 59.5,44.1667 60.1667,43.5 61.5,43.5 Z"/></g>
<g><path style="opacity:1" fill="#4f401d" d="M 13.5,45.5 C 14.1667,45.8333 14.8333,46.1667 15.5,46.5C 16.209,47.404 17.209,47.7373 18.5,47.5C 18.5,47.8333 18.5,48.1667 18.5,48.5C 16.9273,50.2062 14.9273,51.3728 12.5,52C 11.7476,52.6708 11.4142,53.5041 11.5,54.5C 10.596,53.791 10.2627,52.791 10.5,51.5C 9.16667,50.1667 9.16667,48.8333 10.5,47.5C 12.0269,47.573 13.0269,46.9063 13.5,45.5 Z"/></g>
<g><path style="opacity:1" fill="#241f16" d="M 30.5,46.5 C 31.5,46.5 32.5,46.5 33.5,46.5C 34.4916,46.3284 35.1583,46.6618 35.5,47.5C 34.9032,48.1386 34.0698,48.472 33,48.5C 31.6244,48.3158 30.7911,47.6491 30.5,46.5 Z"/></g>
<g><path style="opacity:1" fill="#4c4022" d="M 10.5,47.5 C 9.16667,48.8333 9.16667,50.1667 10.5,51.5C 9.39105,51.4431 8.39105,51.1098 7.5,50.5C 7.5,49.1667 7.5,47.8333 7.5,46.5C 9.30591,43.6618 10.3059,43.9952 10.5,47.5 Z"/></g>
<g><path style="opacity:1" fill="#8e9da6" d="M 24.5,45.5 C 25.4916,45.3284 26.1583,45.6618 26.5,46.5C 25.375,47.3478 25.375,48.3478 26.5,49.5C 25.1667,49.5 24.5,50.1667 24.5,51.5C 24.1667,51.5 23.8333,51.5 23.5,51.5C 22.4728,49.816 21.4728,48.1494 20.5,46.5C 22.099,46.7678 23.4324,46.4345 24.5,45.5 Z"/></g>
<g><path style="opacity:1" fill="#413316" d="M 46.5,43.5 C 46.8333,43.5 47.1667,43.5 47.5,43.5C 47.8333,44.5 48.5,45.1667 49.5,45.5C 50.2778,46.1556 50.9444,46.9889 51.5,48C 50.782,50.472 50.782,52.6387 51.5,54.5C 50.1667,54.5 48.8333,54.5 47.5,54.5C 48.1157,53.2022 48.1157,52.2022 47.5,51.5C 47.5987,48.7628 47.2653,46.0961 46.5,43.5 Z"/></g>
<g><path style="opacity:1" fill="#493b1f" d="M 52.5,43.5 C 53.6489,46.0408 53.6489,48.5408 52.5,51C 53.9733,51.7096 54.6399,52.8762 54.5,54.5C 53.5,54.5 52.5,54.5 51.5,54.5C 50.782,52.6387 50.782,50.472 51.5,48C 50.9444,46.9889 50.2778,46.1556 49.5,45.5C 50.2223,44.4489 51.2223,43.7822 52.5,43.5 Z"/></g>
<g><path style="opacity:1" fill="#685526" d="M 1.5,43.5 C 2.83333,44.1667 4.16667,44.8333 5.5,45.5C 5.5,48.8333 5.5,52.1667 5.5,55.5C 4.5041,55.5858 3.67076,55.2524 3,54.5C 3.80374,56.8275 3.63708,59.1609 2.5,61.5C 2.16667,61.5 1.83333,61.5 1.5,61.5C 1.5,56.1667 1.5,50.8333 1.5,45.5C 1.5,44.8333 1.5,44.1667 1.5,43.5 Z"/></g>
<g><path style="opacity:1" fill="#beb12a" d="M 20.5,46.5 C 21.4728,48.1494 22.4728,49.816 23.5,51.5C 19.4902,50.1682 16.1568,51.1682 13.5,54.5C 12.8333,54.5 12.1667,54.5 11.5,54.5C 11.4142,53.5041 11.7476,52.6708 12.5,52C 14.9273,51.3728 16.9273,50.2062 18.5,48.5C 19.1667,47.8333 19.8333,47.1667 20.5,46.5 Z"/></g>
<g><path style="opacity:1" fill="#afa028" d="M 30.5,46.5 C 30.7911,47.6491 31.6244,48.3158 33,48.5C 34.0698,48.472 34.9032,48.1386 35.5,47.5C 36.4916,47.3284 37.1583,47.6618 37.5,48.5C 36.8333,49.5 36.1667,50.5 35.5,51.5C 34.5,51.5 33.5,51.5 32.5,51.5C 30.9236,50.8571 29.5903,49.8571 28.5,48.5C 29.1667,47.8333 29.8333,47.1667 30.5,46.5 Z"/></g>
<g><path style="opacity:1" fill="#96a5aa" d="M 26.5,46.5 C 26.8333,47.5 27.5,48.1667 28.5,48.5C 29.5903,49.8571 30.9236,50.8571 32.5,51.5C 29.9179,51.9746 27.9179,51.3079 26.5,49.5C 25.375,48.3478 25.375,47.3478 26.5,46.5 Z"/></g>
<g><path style="opacity:1" fill="#9bb2c0" d="M 38.5,46.5 C 39.8333,47.1667 40.8333,48.1667 41.5,49.5C 41.1667,50.1667 40.8333,50.8333 40.5,51.5C 38.8828,52.038 37.2161,52.3713 35.5,52.5C 35.5,52.1667 35.5,51.8333 35.5,51.5C 36.1667,50.5 36.8333,49.5 37.5,48.5C 38.3382,48.1583 38.6716,47.4916 38.5,46.5 Z"/></g>
<g><path style="opacity:1" fill="#483a1a" d="M 44.5,50.5 C 45.609,50.5569 46.609,50.8902 47.5,51.5C 48.1157,52.2022 48.1157,53.2022 47.5,54.5C 47.1667,54.5 46.8333,54.5 46.5,54.5C 45.5,53.8333 44.5,53.1667 43.5,52.5C 43.3284,51.5084 43.6618,50.8417 44.5,50.5 Z"/></g>
<g><path style="opacity:1" fill="#b6a127" d="M 23.5,51.5 C 23.8333,51.5 24.1667,51.5 24.5,51.5C 25.8333,52.1667 27.1667,52.8333 28.5,53.5C 30.6074,54.4682 32.9407,54.8016 35.5,54.5C 35.5,54.8333 35.5,55.1667 35.5,55.5C 32.8333,55.5 30.1667,55.5 27.5,55.5C 26.791,54.596 25.791,54.2627 24.5,54.5C 24.4431,53.391 24.1098,52.391 23.5,51.5 Z"/></g>
<g><path style="opacity:1" fill="#92acbf" d="M 26.5,49.5 C 27.9179,51.3079 29.9179,51.9746 32.5,51.5C 33.5,51.5 34.5,51.5 35.5,51.5C 35.5,51.8333 35.5,52.1667 35.5,52.5C 33.3926,53.4682 31.0593,53.8016 28.5,53.5C 27.1667,52.8333 25.8333,52.1667 24.5,51.5C 24.5,50.1667 25.1667,49.5 26.5,49.5 Z"/></g>
<g><path style="opacity:1" fill="#382e19" d="M 55.5,48.5 C 55.8333,48.5 56.1667,48.5 56.5,48.5C 56.5,51.5 56.5,54.5 56.5,57.5C 55.5,57.5 54.5,57.5 53.5,57.5C 51.7085,57.634 50.0418,57.3007 48.5,56.5C 50.6074,55.5318 52.9407,55.1984 55.5,55.5C 55.5,53.1667 55.5,50.8333 55.5,48.5 Z"/></g>
<g><path style="opacity:1" fill="#4e401e" d="M 23.5,51.5 C 24.1098,52.391 24.4431,53.391 24.5,54.5C 22.1667,54.5 19.8333,54.5 17.5,54.5C 16.1667,54.5 14.8333,54.5 13.5,54.5C 16.1568,51.1682 19.4902,50.1682 23.5,51.5 Z"/></g>
<g><path style="opacity:1" fill="#dad45e" d="M 40.5,51.5 C 40.5,52.1667 40.5,52.8333 40.5,53.5C 38.9582,54.3007 37.2915,54.634 35.5,54.5C 32.9407,54.8016 30.6074,54.4682 28.5,53.5C 31.0593,53.8016 33.3926,53.4682 35.5,52.5C 37.2161,52.3713 38.8828,52.038 40.5,51.5 Z"/></g>
<g><path style="opacity:1" fill="#715f39" d="M 57.5,45.5 C 58.1667,45.5 58.8333,45.5 59.5,45.5C 58.0082,48.3789 58.3415,51.0456 60.5,53.5C 59.3881,54.2652 58.7214,55.2652 58.5,56.5C 57.5184,53.0381 57.185,49.3714 57.5,45.5 Z"/></g>
<g><path style="opacity:1" fill="#45391e" d="M 7.5,50.5 C 8.39105,51.1098 9.39105,51.4431 10.5,51.5C 10.2627,52.791 10.596,53.791 11.5,54.5C 12.1667,54.5 12.8333,54.5 13.5,54.5C 14.8333,54.5 16.1667,54.5 17.5,54.5C 17.5,54.8333 17.5,55.1667 17.5,55.5C 14.0977,55.6576 10.7644,55.3242 7.5,54.5C 7.5,53.1667 7.5,51.8333 7.5,50.5 Z"/></g>
<g><path style="opacity:1" fill="#3c2f13" d="M 17.5,55.5 C 17.5,55.1667 17.5,54.8333 17.5,54.5C 19.8333,54.5 22.1667,54.5 24.5,54.5C 25.791,54.2627 26.791,54.596 27.5,55.5C 26.4324,56.4345 25.099,56.7678 23.5,56.5C 21.7354,55.5386 19.7354,55.2053 17.5,55.5 Z"/></g>
<g><path style="opacity:1" fill="#443a1f" d="M 40.5,53.5 C 40.8333,53.5 41.1667,53.5 41.5,53.5C 42.1667,54.5 42.8333,55.5 43.5,56.5C 40.6146,56.8064 37.9479,56.4731 35.5,55.5C 35.5,55.1667 35.5,54.8333 35.5,54.5C 37.2915,54.634 38.9582,54.3007 40.5,53.5 Z"/></g>
<g><path style="opacity:1" fill="#3c311c" d="M 7.5,54.5 C 10.7644,55.3242 14.0977,55.6576 17.5,55.5C 19.7354,55.2053 21.7354,55.5386 23.5,56.5C 20.8333,56.5 18.1667,56.5 15.5,56.5C 13.1667,56.5 10.8333,56.5 8.5,56.5C 8.16667,55.8333 7.83333,55.1667 7.5,54.5 Z"/></g>
<g><path style="opacity:1" fill="#675223" d="M 6.5,56.5 C 7.16667,56.5 7.83333,56.5 8.5,56.5C 10.8333,56.5 13.1667,56.5 15.5,56.5C 15.5,56.8333 15.5,57.1667 15.5,57.5C 14.7611,57.369 14.0944,57.5357 13.5,58C 14.3366,59.0113 14.67,60.1779 14.5,61.5C 13.2502,61.4226 12.4169,60.756 12,59.5C 10.951,61.1066 9.45101,61.7733 7.5,61.5C 6.69929,59.9582 6.36596,58.2915 6.5,56.5 Z"/></g>
<g><path style="opacity:1" fill="#584926" d="M 27.5,55.5 C 30.1667,55.5 32.8333,55.5 35.5,55.5C 37.9479,56.4731 40.6146,56.8064 43.5,56.5C 44.4916,56.3284 45.1583,56.6618 45.5,57.5C 44.8333,57.5 44.1667,57.5 43.5,57.5C 42.5,57.5 41.5,57.5 40.5,57.5C 37.8333,57.5 35.1667,57.5 32.5,57.5C 31.5,57.5 30.5,57.5 29.5,57.5C 27.5,57.5 25.5,57.5 23.5,57.5C 20.8333,57.5 18.1667,57.5 15.5,57.5C 15.5,57.1667 15.5,56.8333 15.5,56.5C 18.1667,56.5 20.8333,56.5 23.5,56.5C 25.099,56.7678 26.4324,56.4345 27.5,55.5 Z"/></g>
<g><path style="opacity:1" fill="#808f98" d="M 43.5,52.5 C 44.5,53.1667 45.5,53.8333 46.5,54.5C 46.8333,55.5 47.5,56.1667 48.5,56.5C 48.5,57.5 48.5,58.5 48.5,59.5C 47.5,58.8333 46.5,58.1667 45.5,57.5C 45.1583,56.6618 44.4916,56.3284 43.5,56.5C 42.8333,55.5 42.1667,54.5 41.5,53.5C 41.8417,52.6618 42.5084,52.3284 43.5,52.5 Z"/></g>
<g><path style="opacity:1" fill="#7c6838" d="M 29.5,57.5 C 30.5,57.5 31.5,57.5 32.5,57.5C 32.5,58.5 32.5,59.5 32.5,60.5C 33.9305,60.5792 35.2638,60.2458 36.5,59.5C 37.463,59.9698 37.463,60.6365 36.5,61.5C 34.5,61.5 32.5,61.5 30.5,61.5C 30.5674,60.0413 30.2341,58.7079 29.5,57.5 Z"/></g>
<g><path style="opacity:1" fill="#655124" d="M 32.5,57.5 C 35.1667,57.5 37.8333,57.5 40.5,57.5C 39.8333,58.8333 39.1667,60.1667 38.5,61.5C 37.8333,61.5 37.1667,61.5 36.5,61.5C 37.463,60.6365 37.463,59.9698 36.5,59.5C 35.2638,60.2458 33.9305,60.5792 32.5,60.5C 32.5,59.5 32.5,58.5 32.5,57.5 Z"/></g>
<g><path style="opacity:1" fill="#56492b" d="M 56.5,29.5 C 56.8333,29.5 57.1667,29.5 57.5,29.5C 57.5,31.5 57.5,33.5 57.5,35.5C 57.5,38.8333 57.5,42.1667 57.5,45.5C 57.185,49.3714 57.5184,53.0381 58.5,56.5C 59.609,56.5569 60.609,56.8902 61.5,57.5C 61.2252,59.8418 60.3919,59.8418 59,57.5C 58.2828,58.0442 57.7828,58.7109 57.5,59.5C 56.0048,59.0113 54.6715,58.3446 53.5,57.5C 54.5,57.5 55.5,57.5 56.5,57.5C 56.5,54.5 56.5,51.5 56.5,48.5C 56.5,42.1667 56.5,35.8333 56.5,29.5 Z"/></g>
<g><path style="opacity:1" fill="#725d2d" d="M 5.5,55.5 C 5.5,56.1667 5.83333,56.5 6.5,56.5C 6.36596,58.2915 6.69929,59.9582 7.5,61.5C 5.83333,61.5 4.16667,61.5 2.5,61.5C 3.63708,59.1609 3.80374,56.8275 3,54.5C 3.67076,55.2524 4.5041,55.5858 5.5,55.5 Z"/></g>
<g><path style="opacity:1" fill="#6d5829" d="M 23.5,57.5 C 25.5,57.5 27.5,57.5 29.5,57.5C 30.2341,58.7079 30.5674,60.0413 30.5,61.5C 28.1667,61.5 25.8333,61.5 23.5,61.5C 23.5,60.1667 23.5,58.8333 23.5,57.5 Z"/></g>
<g><path style="opacity:1" fill="#6c5c35" d="M 48.5,56.5 C 50.0418,57.3007 51.7085,57.634 53.5,57.5C 54.6715,58.3446 56.0048,59.0113 57.5,59.5C 55.0122,61.3878 52.0122,62.0545 48.5,61.5C 48.5,60.8333 48.5,60.1667 48.5,59.5C 48.5,58.5 48.5,57.5 48.5,56.5 Z"/></g>
<g><path style="opacity:1" fill="#6b5727" d="M 43.5,57.5 C 44.1667,57.5 44.8333,57.5 45.5,57.5C 46.5,58.1667 47.5,58.8333 48.5,59.5C 48.5,60.1667 48.5,60.8333 48.5,61.5C 47.1667,61.5 45.8333,61.5 44.5,61.5C 44.5674,60.0413 44.2341,58.7079 43.5,57.5 Z"/></g>
<g><path style="opacity:1" fill="#786335" d="M 15.5,57.5 C 18.1667,57.5 20.8333,57.5 23.5,57.5C 23.5,58.8333 23.5,60.1667 23.5,61.5C 20.8333,61.5 18.1667,61.5 15.5,61.5C 15.5,60.1667 15.5,58.8333 15.5,57.5 Z"/></g>
<g><path style="opacity:1" fill="#7c6639" d="M 40.5,57.5 C 41.5,57.5 42.5,57.5 43.5,57.5C 44.2341,58.7079 44.5674,60.0413 44.5,61.5C 42.5,61.5 40.5,61.5 38.5,61.5C 39.1667,60.1667 39.8333,58.8333 40.5,57.5 Z"/></g>
<g><path style="opacity:1" fill="#3e3620" d="M 61.5,57.5 C 61.8333,57.5 62.1667,57.5 62.5,57.5C 62.5,59.1667 62.5,60.8333 62.5,62.5C 61.1667,62.5 59.8333,62.5 58.5,62.5C 58.7373,61.209 58.404,60.209 57.5,59.5C 57.7828,58.7109 58.2828,58.0442 59,57.5C 60.3919,59.8418 61.2252,59.8418 61.5,57.5 Z"/></g>
<g><path style="opacity:1" fill="#80714c" d="M 0.5,45.5 C 0.833333,45.5 1.16667,45.5 1.5,45.5C 1.5,50.8333 1.5,56.1667 1.5,61.5C 0.661754,61.8417 0.32842,62.5084 0.5,63.5C 0.166667,63.5 -0.166667,63.5 -0.5,63.5C -0.5,62.5 -0.5,61.5 -0.5,60.5C 0.487173,55.6946 0.820506,50.6946 0.5,45.5 Z"/></g>
<g><path style="opacity:1" fill="#564724" d="M 14.5,61.5 C 14.5,61.8333 14.5,62.1667 14.5,62.5C 9.96775,62.1818 5.63441,62.5151 1.5,63.5C 1.16667,63.5 0.833333,63.5 0.5,63.5C 0.32842,62.5084 0.661754,61.8417 1.5,61.5C 1.83333,61.5 2.16667,61.5 2.5,61.5C 4.16667,61.5 5.83333,61.5 7.5,61.5C 9.45101,61.7733 10.951,61.1066 12,59.5C 12.4169,60.756 13.2502,61.4226 14.5,61.5 Z"/></g>
<g><path style="opacity:1" fill="#5b4b29" d="M 15.5,57.5 C 15.5,58.8333 15.5,60.1667 15.5,61.5C 18.1667,61.5 20.8333,61.5 23.5,61.5C 25.8333,61.5 28.1667,61.5 30.5,61.5C 32.5,61.5 34.5,61.5 36.5,61.5C 37.1667,61.5 37.8333,61.5 38.5,61.5C 40.5,61.5 42.5,61.5 44.5,61.5C 44.5,61.8333 44.5,62.1667 44.5,62.5C 34.5,62.5 24.5,62.5 14.5,62.5C 14.5,62.1667 14.5,61.8333 14.5,61.5C 14.67,60.1779 14.3366,59.0113 13.5,58C 14.0944,57.5357 14.7611,57.369 15.5,57.5 Z"/></g>
<g><path style="opacity:1" fill="#524322" d="M 57.5,59.5 C 58.404,60.209 58.7373,61.209 58.5,62.5C 53.8333,62.5 49.1667,62.5 44.5,62.5C 44.5,62.1667 44.5,61.8333 44.5,61.5C 45.8333,61.5 47.1667,61.5 48.5,61.5C 52.0122,62.0545 55.0122,61.3878 57.5,59.5 Z"/></g>
<g><path style="opacity:1" fill="#2d2514" d="M 63.5,1.5 C 63.5,22.1667 63.5,42.8333 63.5,63.5C 42.8333,63.5 22.1667,63.5 1.5,63.5C 5.63441,62.5151 9.96775,62.1818 14.5,62.5C 24.5,62.5 34.5,62.5 44.5,62.5C 49.1667,62.5 53.8333,62.5 58.5,62.5C 59.8333,62.5 61.1667,62.5 62.5,62.5C 62.5,60.8333 62.5,59.1667 62.5,57.5C 62.5,44.8333 62.5,32.1667 62.5,19.5C 62.5,17.8333 62.5,16.1667 62.5,14.5C 62.1818,9.96775 62.5151,5.63441 63.5,1.5 Z"/></g>
</svg>
